# xmcd CD database file
#
# Track frame offsets:
#	150
#	21530
#	40210
#	61620
#
# Disc length: 1069 seconds
#
# Revision: 0
# Processed by: cddbd v1.5PL3 Copyright (c) Steve Scherf et al.
# Submitted via: CDex 1.51
#
DISCID=2c042b04
DTITLE=猿岩石 - コンビニ
DYEAR=1997
DGENRE=JPop
TTITLE0=コンビニ
TTITLE1=バイト最後の日
TTITLE2=コンビニ (オリジナル･カラオケ)
TTITLE3=バイト最後の日 (オリジナル･カラオケ)
EXTD=YEAR: 1997
EXTT0=
EXTT1=
EXTT2=
EXTT3=
PLAYORDER=
